<svg
  xmlns="http://www.w3.org/2000/svg"
  width="32"
  height="32"
  viewBox="0 0 100 100"
  fill="none"
>
  <rect x="6" y="6" width="88" height="88" rx="22" fill="#101713"/>
  <!-- Code braces: the learning space -->
  <path
    d="M 35 20 C 27 20 24 25 24 34 V 41 C 24 47 21 50 17 50 C 21 50 24 53 24 59 V 66 C 24 75 27 80 35 80"
    stroke="#68efb0"
    stroke-width="4"
    stroke-linecap="round"
    stroke-linejoin="round"
  />

  <!-- Code braces: the learning space -->
  <path
    d="M 65 20 C 73 20 76 25 76 34 V 41 C 76 47 79 50 83 50 C 79 50 76 53 76 59 V 66 C 76 75 73 80 65 80"
    stroke="#68efb0"
    stroke-width="4"
    stroke-linecap="round"
    stroke-linejoin="round"
  />

  <!-- Arrow slash: the next step -->
  <path
    d="M 45 73 L 55 27 M 55 27 L 50 32 M 55 27 L 58 34"
    stroke="#ffb454"
    stroke-width="4"
    stroke-linecap="round"
    stroke-linejoin="round"
  />
</svg>













