<svg width="1200" height="680" viewBox="0 0 1200 680" fill="none" xmlns="http://www.w3.org/2000/svg">
  <rect width="1200" height="680" rx="36" fill="#F2F5F1"/><rect x="42" y="40" width="1116" height="600" rx="28" fill="white" stroke="#152019" stroke-opacity=".09"/>
  <text x="86" y="106" fill="#111814" font-family="Arial" font-size="32" font-weight="700">Навчальний прогрес</text><text x="86" y="137" fill="#708078" font-family="Arial" font-size="15">Огляд активності та результатів</text>
  <g font-family="Arial"><rect x="86" y="180" width="300" height="170" rx="22" fill="#101713"/><text x="112" y="220" fill="#94A199" font-size="14">Виконано задач</text><text x="112" y="288" fill="white" font-size="52" font-weight="700">48</text><rect x="112" y="314" width="218" height="8" rx="4" fill="#29332D"/><rect x="112" y="314" width="156" height="8" rx="4" fill="#00FF88"/>
  <rect x="408" y="180" width="300" height="170" rx="22" fill="#FFF9E4"/><text x="434" y="220" fill="#7C7046" font-size="14">Серія практики</text><text x="434" y="288" fill="#171A18" font-size="52" font-weight="700">12</text><text x="502" y="288" fill="#7C7046" font-size="16">днів</text><circle cx="653" cy="275" r="28" fill="#FFD93D"/>
  <rect x="730" y="180" width="384" height="170" rx="22" fill="#F3FFF8"/><text x="756" y="220" fill="#547062" font-size="14">Середня EDU-оцінка</text><text x="756" y="288" fill="#111814" font-size="52" font-weight="700">10.4</text><text x="875" y="288" fill="#718078" font-size="16">/ 12</text><rect x="756" y="314" width="302" height="8" rx="4" fill="#DDE9E1"/><rect x="756" y="314" width="260" height="8" rx="4" fill="#00B963"/>
  <text x="86" y="412" fill="#111814" font-size="22" font-weight="700">Останні 6 тижнів</text><rect x="86" y="440" width="700" height="150" rx="20" fill="#F6F8F5"/><path d="M120 550C190 530 214 550 278 510C346 468 384 522 452 478C526 430 584 488 650 442C690 415 722 421 754 402" stroke="#00B963" stroke-width="6" stroke-linecap="round"/><g fill="#00FF88"><circle cx="278" cy="510" r="7"/><circle cx="452" cy="478" r="7"/><circle cx="650" cy="442" r="7"/></g>
  <rect x="810" y="400" width="304" height="190" rx="20" fill="#151D18"/><text x="838" y="440" fill="#F2F7F3" font-size="18" font-weight="700">Сертифікат</text><text x="838" y="470" fill="#8F9D94" font-size="14">Python · Основи</text><rect x="838" y="510" width="130" height="42" rx="12" fill="#00FF88"/><text x="864" y="537" fill="#072314" font-size="13" font-weight="700">Переглянути</text></g>
</svg>
